<?xml version="1.0" encoding="utf-8"?>
<!-- Generator: Adobe Illustrator 25.4.1, SVG Export Plug-In . SVG Version: 6.00 Build 0)  -->
<svg version="1.1" id="Layer_1" xmlns="http://www.w3.org/2000/svg" xmlns:xlink="http://www.w3.org/1999/xlink" x="0px" y="0px"
	 viewBox="0 0 381 355.3" style="enable-background:new 0 0 381 355.3;" xml:space="preserve">
<g>
	<path d="M190.8,355c-30.8,0-61.7,0.3-92.5-0.1c-25.2-0.3-44.6-17.7-46.5-42.7c-2.4-30.8,1.1-60.9,15.4-88.9
		c10-19.5,25.6-31.4,48-32.3c4.2-0.2,9,1.8,12.8,4.1c10.4,6.2,20.2,13.4,31.9,17.4c28.8,10,55.7,6,81.3-9.7
		c3.8-2.4,7.8-4.6,11.2-7.4c6.3-5.3,13.3-5.2,20.8-3.8c19,3.6,31.9,14.9,40.8,31.5c10.5,19.5,14.3,40.7,15.5,62.5
		c0.6,10.6,1,21.5-0.9,31.8c-4,23.2-22.4,36.8-44.9,37.4C252.8,355.7,221.8,355,190.8,355C190.8,355,190.8,355,190.8,355z"/>
	<path d="M114.7,126.4c-0.3-41.6,33.8-76,76-75.8c42.2,0.2,76.1,34.2,76,76c-0.1,42-33.8,76.3-76.4,76.1
		C149.2,202.6,114.2,169.2,114.7,126.4z"/>
	<path d="M115.5,177.3c-3.2,0.5-7.2,1-11.3,1.8c-14.2,2.7-26.2,9.5-35.8,20.3c-2.4,2.7-5,3.9-8.7,3.7c-10.3-0.5-20.8,0.5-30.9-1.3
		C9.2,198.4-0.6,187.3,0,168.1c0.1-2.8,0-5.7,0.2-8.5c1-14.3,1.4-28.7,6.7-42.2c1.5-3.9,4-7.7,6.7-10.9c4.4-5.2,9.9-5.9,16.1-2.7
		c14.4,7.5,29,14.7,45.7,14.3c8.7-0.2,17.4-1.8,25.5-2.8c0.9,10.1,0.7,21.2,3.1,31.7C106.4,157.4,111.5,167.1,115.5,177.3z"/>
	<path d="M264.9,176.8c11.8-24.4,14.7-24,14.6-62.1c6.7,1.1,13.3,2.7,20,3.3c18.2,1.7,34.3-4.8,49.9-13.1c10.2-5.4,17-3.3,22.5,7.1
		c6.5,12.2,7.7,25.7,8.7,39.2c0.5,6.1,0.1,12.3,0.4,18.5c1,19.5-11.5,28.7-24.4,31c-12.6,2.3-25.8,1.6-38.7,2.1
		c-1,0-2.2-0.8-2.9-1.6c-13-14.3-29-22.6-48.5-23.6C266.1,177.6,265.7,177.2,264.9,176.8z"/>
	<path d="M25.7,50.5C25.6,22.2,47.4,0.2,75.8,0c28.1-0.2,50.7,22,50.9,49.9c0.2,28-22.6,51-50.6,51.1C48.3,101,25.8,78.6,25.7,50.5z
		"/>
	<path d="M254.7,50.4c0-28.3,21.8-50.3,50.2-50.4c28.1-0.1,50.6,22.1,50.8,50.1c0.2,28-22.7,51-50.7,50.9
		C277.1,101,254.8,78.5,254.7,50.4z"/>
</g>
</svg>
