<svg id="Layer_1" data-name="Layer 1" xmlns="http://www.w3.org/2000/svg" viewBox="0 0 667.55 554.27"><defs><style>.cls-1{fill:#fff;}</style></defs><path class="cls-1" d="M94.55,441.94c4.07,0,8.29,0,12.4.07C102.84,441.92,98.62,441.93,94.55,441.94Z" transform="translate(-15.68 -17.94)"/><path class="cls-1" d="M38.9,267.26c0,41.45,0,84,.07,128.92C38.88,351.28,38.86,308.71,38.9,267.26Z" transform="translate(-15.68 -17.94)"/><path class="cls-1" d="M194,447.39c3.64-4,7.51-5.56,13.44-5.56h0C201.49,441.83,197.62,443.41,194,447.39Z" transform="translate(-15.68 -17.94)"/><path class="cls-1" d="M683.16,111.45l0-26.24a61.85,61.85,0,0,0-7.63-30C662,30.63,640.91,18.13,612.8,18.09c-64.6-.1-130.51-.07-192.49,0-6.87,0-13.79,0-20.68-.06-19.33-.09-39.32-.19-59,.57-30.51,1.18-57.52,25.67-61.49,55.75-1.59,12-1.43,24.18-1.27,36,.05,4.13.11,8.41.09,12.58,0,4.6,5.16,8.38,8.66,8.69,2.77.24,5.47.2,8.07.17,2.12,0,4.11-.05,6.06.07,1.29.07,5.22.31,8.14-2.48s2.87-6.93,2.85-8.29c-.15-8.38-.11-16.93-.08-25.2,0-2.39,0-4.79,0-7.19C311.73,66.4,326,52,348.14,52c87.34,0,176.49,0,265,0C634.24,52,649,66.66,649,87.63c.07,61,.07,120.58,0,177,0,20.79-14.08,35.11-35,35.61-5.07.13-10.27.1-15.29.07l-5.57,0c-4.46,0-10.83.49-15.26,4.92s-5,10.9-5,15.37v58.25l-10.21-11.85c-16.7-19.41-34-39.47-51.15-59.05-3.08-3.51-8.58-7.13-13.92-7.33-10.75-.39-21.63-.35-32.16-.32-5.24,0-10.67,0-16,0a9.93,9.93,0,0,0-7.37,2.67c-2.63,2.71-2.49,6.31-2.45,7.5a119.71,119.71,0,0,1,0,12.42c-.09,1.35-.36,5.47,2.48,8.44s7.06,2.91,8.44,2.89c6.38-.13,12.89-.11,19.19-.1,5.66,0,11.5,0,17.28-.06a4.68,4.68,0,0,1,4.3,2c18.48,21.6,37.35,43.48,55.6,64.63l15.33,17.77c4.88,5.67,9.93,11.54,15,17.24a16.2,16.2,0,0,0,12.31,5.69,18.59,18.59,0,0,0,5.82-1c6.28-2.06,10.29-7.07,11.3-14.11a32.77,32.77,0,0,0,.23-4.92V390.62q0-26.81,0-53.6c0-1,0-1.87,0-2.65,0-.09,0-.19,0-.29h5c1.44,0,2.89,0,4.33-.06,37.3-1,66.63-30.8,66.78-67.79C683.31,214.63,683.24,162.18,683.16,111.45Z" transform="translate(-15.68 -17.94)"/><path class="cls-1" d="M471.92,151.62h-.25a23.94,23.94,0,0,0-23.93,23.62h0a24,24,0,0,0,7.07,17.31,23.65,23.65,0,0,0,16.89,7.11h.1a24,24,0,0,0,.12-48Z" transform="translate(-15.68 -17.94)"/><path class="cls-1" d="M547.68,151.62h0a23.87,23.87,0,0,0-23.84,23.91,23.94,23.94,0,0,0,23.61,24.11h.38a24,24,0,0,0-.14-48Z" transform="translate(-15.68 -17.94)"/><path class="cls-1" d="M351.58,430.92c-21.76.05-41.6.08-60.1.08C310,431,329.82,431,351.58,430.92Z" transform="translate(-15.68 -17.94)"/><polygon class="cls-1" points="110.33 488.42 110.33 491.64 110.33 490.6 110.33 488.42"/><path class="cls-1" d="M286.89,431c-28.93,0-54.6-.06-79.25-.18C232.29,431,258,431,286.89,431Z" transform="translate(-15.68 -17.94)"/><path class="cls-1" d="M207.58,441.83c37.66.18,77.66.22,128,.12C285.24,442.05,245.23,442,207.58,441.83Z" transform="translate(-15.68 -17.94)"/><path class="cls-1" d="M186.08,439.73c5.77-6.18,12.48-8.91,21.56-8.9h-.22C198.46,430.83,191.8,433.6,186.08,439.73Z" transform="translate(-15.68 -17.94)"/><polygon class="cls-1" points="110.33 462.18 110.33 488.42 110.33 453.29 110.33 462.18"/><path class="cls-1" d="M421.22,243.65V218.76a69.38,69.38,0,0,0-.65-11.31c-5.82-35-33.67-58.52-69.29-58.55q-49.77-.06-99.52,0H176c-29.72,0-60.46,0-90.68,0A70.48,70.48,0,0,0,36.43,168.4,65.69,65.69,0,0,0,15.9,215.87c-.3,69.18-.29,126.86,0,181.49.15,24.27,11.54,44.22,32.94,57.72,12,7.6,26,10.78,42.58,9.73l.64,0c0,.22,0,.48,0,.79C91.93,487.06,92,508.9,92,530q0,10.53,0,21.07c0,.35,0,.7,0,1a33.75,33.75,0,0,0,.18,4.61c.89,7.28,5,12.45,11.65,14.57a17.86,17.86,0,0,0,5.5.89,16.44,16.44,0,0,0,12-5.4c1.45-1.5,2.78-3,4.07-4.55l16-18.52c21.66-25.12,44.06-51.09,66-76.71a5.2,5.2,0,0,1,4.73-2.21c49.34.13,94.8.14,139,0,19.7,0,37.56-7.08,50.29-19.8s19.75-30.59,19.78-50.29C421.28,344.39,421.25,293.18,421.22,243.65ZM126,480.12v-8.9q0-10.56,0-21.12c-.06-12.23-6.57-18.83-18.82-19.09-2.82-.06-5.65-.08-8.45-.08H89.59q-2.49,0-5,0C64.27,430.67,50,416.37,50,396.16c-.13-63.14-.12-121.68,0-179,0-19.55,14.93-34.31,34.64-34.32,85.89,0,175.88,0,267.46,0,20.35,0,35.14,14.67,35.18,34.86.1,64.53.1,122.58,0,177.46,0,21.32-14.38,35.68-35.7,35.73-21.76.05-41.6.08-60.1.08h-4.59c-28.93,0-54.6-.06-79.25-.18-9.08,0-15.79,2.72-21.56,8.9a.94.94,0,0,1-.1.1c-.38.42-.77.85-1.14,1.3-15.65,18.56-31.81,37.24-47.45,55.3Q131.7,503,126,509.58V480.12Z" transform="translate(-15.68 -17.94)"/><path class="cls-1" d="M319.19,322.12a17.89,17.89,0,0,0-4.27-2.78,16.3,16.3,0,0,0-8.05-1.45,17.3,17.3,0,0,0-11.93,6.37C280.6,341.38,261.21,351.73,237.3,355c-40.49,5.58-71.56-4.5-95-30.82-6.52-7.33-16.21-8.45-23.55-2.72a16.77,16.77,0,0,0-6.46,11.15,17.58,17.58,0,0,0,3.86,13,91.47,91.47,0,0,0,9.68,10.58c23.61,21.89,54.19,33.51,90.89,34.52H217q3.56-.06,7-.22c15.9-.74,29.47-3.2,42.25-7.6,20.4-7,36.62-17.15,49.35-30.82.85-.91,1.68-1.84,2.5-2.78s1.73-2,2.56-3.08C327,338.32,326.37,328.41,319.19,322.12Z" transform="translate(-15.68 -17.94)"/><path class="cls-1" d="M286.6,236.62a23.4,23.4,0,0,0-16.9-7,23.66,23.66,0,0,0-.06,47.31h.12a23.92,23.92,0,0,0,15.28-5.4,22.07,22.07,0,0,0,1.68-1.53,23.25,23.25,0,0,0,1.86-2.1c.29-.37.56-.74.83-1.13a23.76,23.76,0,0,0-2.81-30.15Z" transform="translate(-15.68 -17.94)"/><path class="cls-1" d="M184.43,236.9a23.61,23.61,0,0,0-16.93-7.28H167A23.57,23.57,0,0,0,145.27,245c0,.05,0,.1-.05.15-.11.31-.22.62-.32.93,0,.1-.06.2-.09.3-.08.27-.17.54-.24.82s-.07.29-.11.44-.11.46-.16.69-.07.36-.1.55l-.12.61c0,.21-.05.42-.08.63s-.06.36-.08.55l-.06.76c0,.15,0,.29,0,.43,0,.4,0,.81,0,1.21A23.35,23.35,0,0,0,167,276.93h.29a23.58,23.58,0,0,0,17.13-40Z" transform="translate(-15.68 -17.94)"/></svg>